HIERARCHY
ROOT root
{
	OFFSET	0	13.1	24.9
	CHANNELS 6  Xposition Yposition Zposition Xrotation Yrotation Zrotation
	JOINT spine_1
	{
		OFFSET	0	9.99999	0
		CHANNELS 3  Xrotation Yrotation Zrotation
		JOINT spine_2
		{
			OFFSET	0	112	-10
			CHANNELS 3  Xrotation Yrotation Zrotation
			JOINT spine_3
			{
				OFFSET	0	206.5	19.3
				CHANNELS 3  Xrotation Yrotation Zrotation
				JOINT spine_4
				{
					OFFSET	0	110.4	14.6
					CHANNELS 3  Xrotation Yrotation Zrotation
					JOINT neck_1
					{
						OFFSET	0	71.8	-50.3
						CHANNELS 3  Xrotation Yrotation Zrotation
						JOINT neck_2
						{
							OFFSET	0	86.2	-25.8
							CHANNELS 3  Xrotation Yrotation Zrotation
							JOINT head_ee
							{
								OFFSET	0	179.8	-8.7
								CHANNELS 3  Xrotation Yrotation Zrotation
								End Site
								{
									OFFSET	1	0	0
								}
							}
						}
					}
					JOINT left_clavicle
					{
						OFFSET	-43.2	22.4	-70.8
						CHANNELS 3  Xrotation Yrotation Zrotation
						JOINT left_shoulder
						{
							OFFSET	-93.9	-5.79999	48.7
							CHANNELS 3  Xrotation Yrotation Zrotation
							JOINT left_elbow
							{
								OFFSET	-291.4	-30.8	15.2
								CHANNELS 3  Xrotation Yrotation Zrotation
								JOINT left_lowarm_twist
								{
									OFFSET	-110.7	-3.89999	13.6
									CHANNELS 3  Xrotation Yrotation Zrotation
									JOINT left_hand
									{
										OFFSET	-110.7	-3.89999	13.6
										CHANNELS 3  Xrotation Yrotation Zrotation
										JOINT left_ee
										{
											OFFSET	-80.8	-5.10001	12.1
											CHANNELS 3  Xrotation Yrotation Zrotation
											End Site
											{
												OFFSET	1	0	0
											}
										}
									}
								}
							}
						}
					}
					JOINT right_clavicle
					{
						OFFSET	43.2	22.4	-70.8
						CHANNELS 3  Xrotation Yrotation Zrotation
						JOINT right_shoulder
						{
							OFFSET	93.9	-5.79999	48.7
							CHANNELS 3  Xrotation Yrotation Zrotation
							JOINT right_elbow
							{
								OFFSET	291.4	-30.8	15.2
								CHANNELS 3  Xrotation Yrotation Zrotation
								JOINT right_lowarm_twist
								{
									OFFSET	110.7	-3.89999	13.6
									CHANNELS 3  Xrotation Yrotation Zrotation
									JOINT right_hand
									{
										OFFSET	110.7	-3.89999	13.6
										CHANNELS 3  Xrotation Yrotation Zrotation
										JOINT right_ee
										{
											OFFSET	80.8	-5.10001	12.1
											CHANNELS 3  Xrotation Yrotation Zrotation
											End Site
											{
												OFFSET	1	0	0
											}
										}
									}
								}
							}
						}
					}
				}
			}
		}
	}
	JOINT left_hip
	{
		OFFSET	-82.8	-127.5	0.300001
		CHANNELS 3  Xrotation Yrotation Zrotation
		JOINT left_knee
		{
			OFFSET	-28.2	-396.7	2.2
			CHANNELS 3  Xrotation Yrotation Zrotation
			JOINT left_ankle
			{
				OFFSET	-11.7	-411.3	35.4
				CHANNELS 3  Xrotation Yrotation Zrotation
				JOINT left_toes
				{
					OFFSET	0	-60	-88.6
					CHANNELS 3  Xrotation Yrotation Zrotation
					JOINT left_foot_ee
					{
						OFFSET	-22.5	-16.5	-42.2
						CHANNELS 3  Xrotation Yrotation Zrotation
						End Site
						{
							OFFSET	1	0	0
						}
					}
				}
			}
		}
	}
	JOINT right_hip
	{
		OFFSET	82.8	-127.5	0.300001
		CHANNELS 3  Xrotation Yrotation Zrotation
		JOINT right_knee
		{
			OFFSET	28.2	-396.7	2.2
			CHANNELS 3  Xrotation Yrotation Zrotation
			JOINT right_ankle
			{
				OFFSET	11.7	-411.3	35.4
				CHANNELS 3  Xrotation Yrotation Zrotation
				JOINT right_toes
				{
					OFFSET	0	-60	-88.6
					CHANNELS 3  Xrotation Yrotation Zrotation
					JOINT right_foot_ee
					{
						OFFSET	22.5	-16.5	-42.2
						CHANNELS 3  Xrotation Yrotation Zrotation
						End Site
						{
							OFFSET	1	0	0
						}
					}
				}
			}
		}
	}
}
MOTION
Frames: 12
Frame Time: 0.02
813.349347343 615.552 -1789.73153537 0.36469285847 24.7920882939 1.61493257085 2.57719 0.0174152 1.12549 2.5779 -0.054233 1.12431 2.57667 -0.240162 1.0997 2.57499 -0.0634821 1.12383 -4.44618 3.44694 1.87021 -4.43334 4.89675 2.48453 -0.0 0.0 -0.0 -4.40336 7.75758 -6.95902 0.107308 -14.3369 67.2147 2.38839 -49.7877 1.10847 -7.77017 -0.337685 0.933426 -3.5782 1.93087 -23.6437 -0.0 0.0 -0.0 10.0029 2.48998 -19.7633 -23.9271 24.5608 -66.7215 0.665283 18.2403 -0.106802 25.0097 -0.193451 3.16365 1.35966 -18.7323 -15.9735 0.0 0.0 0.0 2.79719 -35.9962 -3.27693 -6.07416 0.202009 0.909882 42.0285 28.2009 -5.4789 25.9478 -0.0 -0.0 -0.0 0.0 -0.0 32.5653 22.9756 -14.1732 -57.7333 1.96026 -8.271 37.4981 -15.9981 4.71629 35.5464 -0.0 -0.0 0.0 0.0 0.0 
803.715641452 612.628 -1793.05647636 1.10074349055 25.3067112954 1.85611998044 2.44119 -0.00487644 0.956654 2.44169 -0.0657381 0.954405 2.4405 -0.225501 0.929712 2.4393 -0.0758477 0.953655 -4.04296 3.05734 0.771965 -4.03502 4.9995 1.28144 -0.0 0.0 -0.0 -4.0914 7.18178 -6.51409 0.823476 -14.1973 67.0103 2.38372 -49.7325 1.1049 -7.6756 -0.332819 0.922354 -3.44244 1.52877 -22.8726 -0.0 0.0 -0.0 9.8554 3.19094 -19.4741 -23.4264 26.1786 -66.8787 0.670774 18.3808 -0.108527 24.948 -0.194681 3.15587 1.24133 -21.1517 -16.0054 0.0 0.0 0.0 3.36457 -29.1079 -2.34668 -6.708 0.2175 1.00592 43.2333 27.3463 -5.55596 28.042 -0.0 -0.0 -0.0 0.0 -0.0 32.8005 29.2785 -17.1096 -50.1427 1.23462 -7.35461 35.7862 -21.536 4.65436 34.445 -0.0 -0.0 0.0 0.0 0.0 
790.307656296 613.341 -1796.0587497 0.301659403953 26.5229451942 2.23777686018 2.61849 0.0446746 1.03551 2.61908 -0.0213047 1.03626 2.61856 -0.192317 1.01848 2.61711 -0.0290623 1.03607 -5.20939 4.1312 0.489097 -5.19969 7.23762 1.22431 -0.0 0.0 -0.0 -4.18861 5.47461 -7.04942 1.39038 -13.8521 67.3062 2.06782 -45.6834 0.871081 -3.81634 -0.149999 0.46409 -3.43871 -0.38936 -23.8529 -0.0 0.0 -0.0 9.86306 5.09907 -19.5309 -23.6333 24.4646 -68.3282 0.691669 18.9132 -0.115209 25.299 -0.187573 3.20015 1.76403 -18.0595 -18.3338 0.0 0.0 0.0 3.05982 -29.8915 -1.94543 -5.59542 0.189604 0.83746 43.1086 26.0521 -5.49439 27.9847 -0.0 -0.0 -0.0 0.0 -0.0 33.0035 41.5246 -19.4626 -33.7545 0.117954 -5.10469 32.426 -23.9507 4.3555 31.83 -0.0 -0.0 0.0 0.0 0.0 
784.169743756 615.425 -1799.79651968 -0.359770351217 27.4447098255 2.36483846367 2.67781 0.0164864 1.01021 2.67838 -0.0478261 1.00921 2.67739 -0.212991 0.987643 2.67604 -0.0543468 1.00888 -4.5357 4.26032 -0.860862 -4.51193 8.4641 -0.173248 -0.0 0.0 -0.0 -3.84024 4.46135 -6.60294 1.97424 -12.9796 67.9299 1.93365 -43.7627 0.776651 -3.36976 -0.130852 0.410306 -3.1039 -2.66451 -22.5625 -0.0 0.0 -0.0 9.80111 5.62818 -19.4059 -23.7411 24.6008 -68.0052 0.687653 18.8111 -0.11391 25.3763 -0.185973 3.20988 1.93335 -19.2394 -19.779 0.0 0.0 0.0 3.1194 -29.215 -1.63442 -2.90356 0.108613 0.432319 42.9626 26.0506 -5.48113 28.6219 -0.0 -0.0 -0.0 0.0 -0.0 32.0075 49.9746 -19.2718 -25.7446 -0.183399 -3.91337 32.6495 -26.2117 4.4404 31.0803 -0.0 -0.0 0.0 0.0 0.0 
776.942718551 620.064 -1806.78800709 -0.766387307001 27.8846432925 2.55989012512 2.82026 0.132293 1.14505 2.82099 0.0591673 1.15114 2.82199 -0.127866 1.14555 2.82016 0.054644 1.15137 -4.48268 3.11136 -2.42989 -4.44375 7.54594 -1.97626 -0.0 0.0 -0.0 -3.27284 6.70056 -5.11758 2.94996 -12.9422 67.0807 1.82759 -42.1516 0.704373 -2.68947 -0.102491 0.328095 -2.76942 -2.66278 -20.1463 -0.0 0.0 -0.0 9.65044 3.98746 -19.0603 -23.066 23.5387 -68.7327 0.70867 19.3439 -0.120779 24.3637 -0.205911 3.08207 1.28619 -18.697 -15.5001 0.0 0.0 0.0 2.91979 -26.7094 -1.6492 -1.49588 0.0586959 0.222054 42.2251 25.999 -5.41184 29.234 -0.0 -0.0 -0.0 0.0 -0.0 31.6002 53.8601 -20.0994 -23.4705 -0.238311 -3.56874 29.5407 -27.6015 4.12162 30.2755 -0.0 -0.0 0.0 0.0 0.0 
778.722390665 620.064 -1810.50406792 -0.760787696286 27.0769101231 2.54775563684 2.82026 0.132293 1.14505 2.82099 0.0591673 1.15114 2.82199 -0.127866 1.14555 2.82016 0.054644 1.15137 -4.48268 3.11136 -2.42989 -4.44375 7.54594 -1.97626 -0.0 0.0 -0.0 -3.27284 6.70056 -5.11758 2.94996 -12.9422 67.0807 1.82759 -42.1516 0.704373 -2.68947 -0.102491 0.328095 -2.76942 -2.66278 -20.1463 -0.0 0.0 -0.0 9.65044 3.98746 -19.0603 -23.066 23.5387 -68.7327 0.70867 19.3439 -0.120779 24.3637 -0.205911 3.08207 1.28619 -18.697 -15.5001 0.0 0.0 0.0 2.91979 -26.7094 -1.6492 -1.49588 0.0586959 0.222054 42.2251 25.999 -5.41184 29.234 -0.0 -0.0 -0.0 0.0 -0.0 31.6002 53.8601 -20.0994 -23.4705 -0.238311 -3.56874 29.5407 -27.6015 4.12162 30.2755 -0.0 -0.0 0.0 0.0 0.0 
766.863111301 620.848 -1823.95546143 -2.63796737527 28.9684346192 3.63011888256 3.32037 0.385647 1.21581 3.32114 0.307506 1.23788 3.32751 0.114438 1.27036 3.3254 0.313615 1.23635 -2.30931 3.03411 -3.31157 -2.23267 8.0996 -3.06472 -0.0 0.0 -0.0 -3.69859 5.86096 -6.06166 2.1239 -12.8019 68.8453 1.69449 -40.0067 0.616895 -3.66806 -0.143595 0.446249 -1.49138 -5.54567 -12.5057 -0.0 0.0 -0.0 9.80586 3.38071 -19.3746 -23.6181 25.6745 -68.6515 0.735096 20.0088 -0.129677 23.8687 -0.214834 3.01947 1.77636 -25.9762 -20.6542 0.0 0.0 0.0 0.664351 -26.8488 -2.57718 6.57509 -0.326033 -0.955403 40.7117 25.098 -5.23903 30.3327 -0.0 -0.0 -0.0 0.0 -0.0 31.1257 63.2992 -20.0727 -15.4435 -0.322072 -2.34093 29.5251 -28.3713 4.14182 29.9245 -0.0 -0.0 0.0 0.0 0.0 
767.188126155 620.848 -1824.58412467 -2.63463364937 28.8372940518 3.62322142063 3.32037 0.385647 1.21581 3.32114 0.307506 1.23788 3.32751 0.114438 1.27036 3.3254 0.313615 1.23635 -2.30931 3.03411 -3.31157 -2.23267 8.0996 -3.06472 -0.0 0.0 -0.0 -3.69859 5.86096 -6.06166 2.1239 -12.8019 68.8453 1.69449 -40.0067 0.616895 -3.66806 -0.143595 0.446249 -1.49138 -5.54567 -12.5057 -0.0 0.0 -0.0 9.80586 3.38071 -19.3746 -23.6181 25.6745 -68.6515 0.735096 20.0088 -0.129677 23.8687 -0.214834 3.01947 1.77636 -25.9762 -20.6542 0.0 0.0 0.0 0.664351 -26.8488 -2.57718 6.57509 -0.326033 -0.955403 40.7117 25.098 -5.23903 30.3327 -0.0 -0.0 -0.0 0.0 -0.0 31.1257 63.2992 -20.0727 -15.4435 -0.322072 -2.34093 29.5251 -28.3713 4.14182 29.9245 -0.0 -0.0 0.0 0.0 0.0 
767.672746784 620.848 -1825.51500672 -2.62973081218 28.6428224904 3.61302496355 3.32037 0.385647 1.21581 3.32114 0.307506 1.23788 3.32751 0.114438 1.27036 3.3254 0.313615 1.23635 -2.30931 3.03411 -3.31157 -2.23267 8.0996 -3.06472 -0.0 0.0 -0.0 -3.69859 5.86096 -6.06166 2.1239 -12.8019 68.8453 1.69449 -40.0067 0.616895 -3.66806 -0.143595 0.446249 -1.49138 -5.54567 -12.5057 -0.0 0.0 -0.0 9.80586 3.38071 -19.3746 -23.6181 25.6745 -68.6515 0.735096 20.0088 -0.129677 23.8687 -0.214834 3.01947 1.77636 -25.9762 -20.6542 0.0 0.0 0.0 0.664351 -26.8488 -2.57718 6.57509 -0.326033 -0.955403 40.7117 25.098 -5.23903 30.3327 -0.0 -0.0 -0.0 0.0 -0.0 31.1257 63.2992 -20.0727 -15.4435 -0.322072 -2.34093 29.5251 -28.3713 4.14182 29.9245 -0.0 -0.0 0.0 0.0 0.0 
768.738739632 620.848 -1827.53590952 -2.6192237017 28.2194342926 3.59095608408 3.32037 0.385647 1.21581 3.32114 0.307506 1.23788 3.32751 0.114438 1.27036 3.3254 0.313615 1.23635 -2.30931 3.03411 -3.31157 -2.23267 8.0996 -3.06472 -0.0 0.0 -0.0 -3.69859 5.86096 -6.06166 2.1239 -12.8019 68.8453 1.69449 -40.0067 0.616895 -3.66806 -0.143595 0.446249 -1.49138 -5.54567 -12.5057 -0.0 0.0 -0.0 9.80586 3.38071 -19.3746 -23.6181 25.6745 -68.6515 0.735096 20.0088 -0.129677 23.8687 -0.214834 3.01947 1.77636 -25.9762 -20.6542 0.0 0.0 0.0 0.664351 -26.8488 -2.57718 6.57509 -0.326033 -0.955403 40.7117 25.098 -5.23903 30.3327 -0.0 -0.0 -0.0 0.0 -0.0 31.1257 63.2992 -20.0727 -15.4435 -0.322072 -2.34093 29.5251 -28.3713 4.14182 29.9245 -0.0 -0.0 0.0 0.0 0.0 
749.981076844 616.918 -1836.25022468 -4.95157455449 31.4395378844 3.0207821028 4.23386 0.4679 1.67785 4.23535 0.360201 1.70422 4.24511 0.123017 1.73751 4.24111 0.395841 1.6963 -3.36341 2.61512 -1.66668 -3.33712 6.05257 -1.33594 -0.0 0.0 -0.0 -3.73406 7.21718 -5.85616 0.959451 -13.8382 70.0551 1.48489 -36.3348 0.487297 -7.73029 -0.335631 0.928759 0.078646 -3.64185 -1.01211 -0.0 0.0 -0.0 9.61982 -0.133795 -18.8666 -23.6021 27.4631 -68.0171 0.799221 21.599 -0.152455 24.1399 -0.210013 3.05378 1.60058 -23.6472 -18.9564 0.0 0.0 0.0 4.61019 -18.432 1.1556 4.36136 -0.204013 -0.637901 42.1054 25.768 -5.39245 34.8583 -0.0 -0.0 -0.0 0.0 -0.0 25.9554 61.7701 -14.2454 -17.4218 -0.31742 -2.64441 38.1118 -27.356 5.0613 32.5564 -0.0 -0.0 0.0 0.0 0.0 
752.693512359 617.143 -1836.58403016 -4.85213738601 32.7860347807 3.49840712892 4.14805 0.140931 1.68907 4.14963 0.0331813 1.69461 4.14962 -0.202542 1.68279 4.14568 0.0657267 1.69366 -6.47068 2.29897 -3.38793 -6.42913 6.73203 -2.96036 -0.0 0.0 -0.0 -3.61429 5.97632 -5.88334 0.386237 -14.2445 71.0827 1.39884 -34.7179 0.43729 -5.28071 -0.215723 0.639396 0.261041 -4.02018 0.0552804 -0.0 0.0 -0.0 10.4198 2.47476 -20.6422 -24.5505 28.6335 -66.0985 0.78107 21.1523 -0.145839 21.8479 -0.245644 2.7632 1.31377 -27.5726 -18.3267 0.0 0.0 0.0 5.18245 -21.651 0.644922 3.32336 -0.151054 -0.487488 42.8843 26.0933 -5.47562 37.1873 -0.0 -0.0 -0.0 0.0 -0.0 24.8933 63.745 -13.5522 -15.0947 -0.321805 -2.28741 39.2902 -27.5365 5.18678 30.142 -0.0 -0.0 0.0 0.0 0.0 
